<svg width="1080" height="1080" viewBox="0 0 1080 1080" fill="none" xmlns="http://www.w3.org/2000/svg">
<g clip-path="url(#clip0_1_2)">
<g filter="url(#filter0_d_1_2)">
<path d="M241.036 758.299C226.282 810.94 208.195 858.014 283.97 899.861C283.97 899.861 383.577 949.18 448.673 964.508C497.384 977.647 524.569 982.373 572.087 970.25C594.362 951.207 604.843 936.464 618.556 900.079L672.44 744.427L793.262 385.576C798.058 348.947 767.719 329.468 676.695 298.881C670.28 297.678 693.199 222.266 698.5 201.5C698.326 185.199 694.757 188.89 692.5 177C690.243 165.11 701.315 127.476 704 117.5C715.643 74.2355 642.74 52.5661 627.5 93C612.26 133.434 607.602 152.129 598 156.5C588.52 160.816 598.465 153.337 585.067 167.478C572.394 180.853 555.872 263.779 540.282 259.162C436.532 228.44 412.69 237.921 398.17 276.619L359.03 394.35L241.036 758.299Z" fill="#FF8BA7"/>
<path d="M241.036 758.299C226.282 810.94 208.195 858.014 283.97 899.861C283.97 899.861 383.577 949.18 448.673 964.508C497.384 977.647 524.569 982.373 572.087 970.25C594.362 951.207 604.843 936.464 618.556 900.079L672.44 744.427L793.262 385.576C798.058 348.947 767.719 329.468 676.695 298.881C670.28 297.678 693.199 222.266 698.5 201.5C698.326 185.199 694.757 188.89 692.5 177C690.243 165.11 701.315 127.476 704 117.5C715.643 74.2355 642.74 52.5661 627.5 93C612.26 133.434 607.602 152.129 598 156.5C588.52 160.816 598.465 153.337 585.067 167.478C572.394 180.853 555.872 263.779 540.282 259.162C436.532 228.44 412.69 237.921 398.17 276.619L359.03 394.35L241.036 758.299Z" stroke="white" stroke-width="42" stroke-miterlimit="1"/>
</g>
<path d="M310.84 720.115C299.89 759.184 286.466 794.122 342.704 825.179C342.704 825.179 416.63 861.783 464.943 873.159C501.095 882.91 521.271 886.418 556.537 877.421C573.07 863.287 580.849 852.345 591.026 825.342L631.018 709.821L720.688 443.49C724.248 416.305 701.731 401.849 634.175 379.147L532.933 349.669C455.932 326.868 438.237 333.904 427.461 362.625L398.412 450.002L310.84 720.115Z" stroke="white" stroke-width="13" stroke-miterlimit="1"/>
<mask id="path-4-outside-1_1_2" maskUnits="userSpaceOnUse" x="377.957" y="468.756" width="259.479" height="269.752" fill="black">
<rect fill="white" x="377.957" y="468.756" width="259.479" height="269.752"/>
<path d="M585.289 570.445C578.191 560.751 571.791 553.309 566.089 548.119C560.457 542.714 553.221 538.576 544.383 535.704C526.706 529.961 510.037 529.55 494.376 534.471C482.364 538.433 472.131 545.356 463.676 555.241C455.221 565.125 448.682 577.181 444.059 591.409C439.646 604.99 438.885 617.97 441.774 630.349C444.734 642.512 450.296 652.899 458.461 661.51C466.627 670.122 476.099 676.179 486.877 679.681C497.656 683.183 507.451 684.578 516.262 683.866C525.359 683.008 533.154 680.655 539.648 676.807C549.989 669.919 557.647 658.822 562.62 643.516C563.32 641.361 562.086 639.291 558.917 637.308C555.748 635.325 550.93 633.283 544.463 631.182L521.076 623.941C514.824 621.909 510.251 619.113 507.357 615.551C504.463 611.988 503.611 608.375 504.802 604.71C506.483 599.537 509.433 596.324 513.653 595.074C517.942 593.608 522.997 593.82 528.818 595.711C535.716 597.953 544.846 601.396 556.206 606.04C567.567 610.685 575.834 613.848 581.008 615.529C588.553 617.981 593.819 622.313 596.805 628.527C600.007 634.81 600.136 642.479 597.195 651.533C594.463 659.94 589.444 669.154 582.137 679.173C574.83 689.192 566.399 697.535 556.844 704.202C547.575 710.723 535.846 714.181 521.656 714.576C507.752 714.825 493.147 712.463 477.842 707.49C465.123 703.357 453.5 697.317 442.975 689.368C432.449 681.42 424.389 672.485 418.794 662.564C411.89 650.073 407.594 636.522 405.906 621.912C404.503 607.156 405.869 593.419 410.001 580.7C416.025 562.161 426.185 545.562 440.482 530.902C455.064 516.097 471.368 506.26 489.394 501.393C497.263 499.182 507.472 498.567 520.024 499.547C532.575 500.527 543.701 502.593 553.402 505.745C568.492 510.648 580.98 517.327 590.864 525.782C600.818 534.021 607.413 543.433 610.647 554.017C611.973 558.738 612.146 562.608 611.165 565.626C610.045 569.075 607.485 571.818 603.486 573.855C599.488 575.893 595.979 576.421 592.961 575.441C591.668 575.02 590.229 574.314 588.644 573.323C587.06 572.331 585.942 571.372 585.289 570.445Z"/>
</mask>
<path d="M585.289 570.445C578.191 560.751 571.791 553.309 566.089 548.119C560.457 542.714 553.221 538.576 544.383 535.704C526.706 529.961 510.037 529.55 494.376 534.471C482.364 538.433 472.131 545.356 463.676 555.241C455.221 565.125 448.682 577.181 444.059 591.409C439.646 604.99 438.885 617.97 441.774 630.349C444.734 642.512 450.296 652.899 458.461 661.51C466.627 670.122 476.099 676.179 486.877 679.681C497.656 683.183 507.451 684.578 516.262 683.866C525.359 683.008 533.154 680.655 539.648 676.807C549.989 669.919 557.647 658.822 562.62 643.516C563.32 641.361 562.086 639.291 558.917 637.308C555.748 635.325 550.93 633.283 544.463 631.182L521.076 623.941C514.824 621.909 510.251 619.113 507.357 615.551C504.463 611.988 503.611 608.375 504.802 604.71C506.483 599.537 509.433 596.324 513.653 595.074C517.942 593.608 522.997 593.82 528.818 595.711C535.716 597.953 544.846 601.396 556.206 606.04C567.567 610.685 575.834 613.848 581.008 615.529C588.553 617.981 593.819 622.313 596.805 628.527C600.007 634.81 600.136 642.479 597.195 651.533C594.463 659.94 589.444 669.154 582.137 679.173C574.83 689.192 566.399 697.535 556.844 704.202C547.575 710.723 535.846 714.181 521.656 714.576C507.752 714.825 493.147 712.463 477.842 707.49C465.123 703.357 453.5 697.317 442.975 689.368C432.449 681.42 424.389 672.485 418.794 662.564C411.89 650.073 407.594 636.522 405.906 621.912C404.503 607.156 405.869 593.419 410.001 580.7C416.025 562.161 426.185 545.562 440.482 530.902C455.064 516.097 471.368 506.26 489.394 501.393C497.263 499.182 507.472 498.567 520.024 499.547C532.575 500.527 543.701 502.593 553.402 505.745C568.492 510.648 580.98 517.327 590.864 525.782C600.818 534.021 607.413 543.433 610.647 554.017C611.973 558.738 612.146 562.608 611.165 565.626C610.045 569.075 607.485 571.818 603.486 573.855C599.488 575.893 595.979 576.421 592.961 575.441C591.668 575.02 590.229 574.314 588.644 573.323C587.06 572.331 585.942 571.372 585.289 570.445Z" fill="white"/>
<path d="M585.289 570.445L586.107 569.87L586.102 569.862L586.096 569.855L585.289 570.445ZM566.089 548.119L565.396 548.841L565.406 548.85L565.416 548.859L566.089 548.119ZM494.376 534.471L494.077 533.517L494.063 533.521L494.376 534.471ZM463.676 555.241L462.916 554.591L463.676 555.241ZM441.774 630.349L440.8 630.576L440.802 630.585L441.774 630.349ZM458.461 661.51L457.736 662.198L458.461 661.51ZM516.262 683.866L516.343 684.863L516.356 684.862L516.262 683.866ZM539.648 676.807L540.158 677.667L540.18 677.654L540.202 677.639L539.648 676.807ZM558.917 637.308L558.386 638.156L558.917 637.308ZM544.463 631.182L544.772 630.231L544.758 630.227L544.463 631.182ZM521.076 623.94L520.767 624.892L520.78 624.896L521.076 623.94ZM507.357 615.551L506.581 616.181L507.357 615.551ZM513.653 595.074L513.937 596.033L513.957 596.027L513.976 596.02L513.653 595.074ZM596.805 628.527L595.904 628.96L595.909 628.97L595.914 628.981L596.805 628.527ZM582.137 679.173L582.944 679.762L582.137 679.173ZM556.844 704.202L556.272 703.382L556.269 703.384L556.844 704.202ZM521.656 714.576L521.674 715.576L521.684 715.576L521.656 714.576ZM442.975 689.368L443.577 688.57L442.975 689.368ZM418.794 662.564L417.919 663.048L417.923 663.055L418.794 662.564ZM405.906 621.912L404.91 622.006L404.911 622.016L404.912 622.027L405.906 621.912ZM440.482 530.902L439.769 530.2L439.766 530.204L440.482 530.902ZM489.394 501.393L489.655 502.358L489.665 502.355L489.394 501.393ZM520.024 499.547L519.946 500.544L519.946 500.544L520.024 499.547ZM590.864 525.782L590.214 526.542L590.22 526.547L590.226 526.552L590.864 525.782ZM610.647 554.017L611.61 553.747L611.607 553.736L611.603 553.725L610.647 554.017ZM588.644 573.323L588.114 574.171L588.114 574.171L588.644 573.323ZM586.096 569.855C578.978 560.132 572.533 552.632 566.762 547.38L565.416 548.859C571.049 553.986 577.405 561.369 584.483 571.036L586.096 569.855ZM566.781 547.398C561.021 541.87 553.647 537.663 544.692 534.753L544.074 536.655C552.796 539.489 559.892 543.558 565.396 548.841L566.781 547.398ZM544.692 534.753C526.844 528.954 509.961 528.525 494.077 533.517L494.676 535.425C510.113 530.574 526.567 530.967 544.074 536.655L544.692 534.753ZM494.063 533.521C481.872 537.542 471.486 544.571 462.916 554.591L464.436 555.891C472.775 546.141 482.856 539.324 494.69 535.421L494.063 533.521ZM462.916 554.591C454.364 564.589 447.765 576.766 443.108 591.1L445.01 591.718C449.598 577.597 456.078 565.661 464.436 555.891L462.916 554.591ZM443.108 591.1C438.646 604.832 437.864 617.998 440.8 630.576L442.748 630.121C439.905 617.941 440.647 605.148 445.01 591.718L443.108 591.1ZM440.802 630.585C443.801 642.908 449.444 653.454 457.736 662.198L459.187 660.822C451.148 652.345 445.666 642.116 442.746 630.112L440.802 630.585ZM457.736 662.198C466.01 670.925 475.623 677.076 486.568 680.632L487.186 678.73C476.574 675.281 467.243 669.319 459.187 660.822L457.736 662.198ZM486.568 680.632C497.438 684.164 507.368 685.588 516.343 684.863L516.182 682.869C507.533 683.568 497.873 682.202 487.186 678.73L486.568 680.632ZM516.356 684.862C525.569 683.993 533.513 681.605 540.158 677.667L539.138 675.947C532.795 679.706 525.149 682.024 516.168 682.87L516.356 684.862ZM540.202 677.639C550.78 670.594 558.549 659.281 563.571 643.825L561.669 643.207C556.744 658.363 549.198 669.244 539.094 675.975L540.202 677.639ZM563.571 643.825C564.016 642.454 563.832 641.1 563.078 639.835C562.347 638.61 561.099 637.494 559.447 636.461L558.386 638.156C559.903 639.105 560.857 640.016 561.36 640.86C561.84 641.665 561.924 642.423 561.669 643.207L563.571 643.825ZM559.447 636.461C556.174 634.412 551.264 632.34 544.772 630.231L544.154 632.133C550.595 634.226 555.321 636.238 558.386 638.156L559.447 636.461ZM544.758 630.227L521.371 622.985L520.78 624.896L544.167 632.137L544.758 630.227ZM521.385 622.989C515.241 620.993 510.864 618.281 508.133 614.92L506.581 616.181C509.638 619.944 514.407 622.825 520.767 624.892L521.385 622.989ZM508.133 614.92C505.405 611.563 504.688 608.296 505.753 605.019L503.851 604.401C502.534 608.454 503.52 612.414 506.581 616.181L508.133 614.92ZM505.753 605.019C507.359 600.075 510.109 597.167 513.937 596.033L513.368 594.115C508.757 595.482 505.606 598.998 503.851 604.401L505.753 605.019ZM513.976 596.02C518 594.645 522.823 594.815 528.509 596.662L529.127 594.76C523.172 592.825 517.885 592.571 513.329 594.128L513.976 596.02ZM528.509 596.662C535.373 598.893 544.477 602.325 555.828 606.966L556.585 605.115C545.215 600.466 536.059 597.013 529.127 594.76L528.509 596.662ZM555.828 606.966C567.191 611.611 575.487 614.787 580.699 616.48L581.317 614.578C576.182 612.909 567.944 609.759 556.585 605.115L555.828 606.966ZM580.699 616.48C588.027 618.861 593.054 623.03 595.904 628.96L597.706 628.093C594.584 621.596 589.079 617.1 581.317 614.578L580.699 616.48ZM595.914 628.981C598.958 634.955 599.133 642.331 596.244 651.224L598.146 651.842C601.14 642.627 601.055 634.666 597.696 628.073L595.914 628.981ZM596.244 651.224C593.555 659.5 588.596 668.618 581.329 678.583L582.944 679.762C590.291 669.689 595.371 660.381 598.146 651.842L596.244 651.224ZM581.329 678.583C574.083 688.519 565.73 696.782 556.272 703.382L557.416 705.022C567.067 698.287 575.576 689.865 582.944 679.762L581.329 678.583ZM556.269 703.384C547.197 709.767 535.671 713.186 521.628 713.576L521.684 715.576C536.021 715.177 547.954 711.68 557.42 705.02L556.269 703.384ZM521.638 713.576C507.861 713.823 493.367 711.483 478.151 706.539L477.533 708.441C492.927 713.443 507.643 715.827 521.674 715.576L521.638 713.576ZM478.151 706.539C465.536 702.44 454.013 696.451 443.577 688.57L442.372 690.166C452.988 698.183 464.71 704.274 477.533 708.441L478.151 706.539ZM443.577 688.57C433.144 680.692 425.183 671.857 419.665 662.073L417.923 663.055C423.595 673.114 431.754 682.148 442.372 690.166L443.577 688.57ZM419.669 662.08C412.83 649.706 408.573 636.281 406.899 621.797L404.912 622.027C406.615 636.762 410.95 650.439 417.919 663.048L419.669 662.08ZM406.901 621.817C405.511 607.183 406.866 593.585 410.952 581.009L409.05 580.391C404.871 593.254 403.496 607.13 404.91 622.006L406.901 621.817ZM410.952 581.009C416.926 562.623 427.003 546.156 441.198 531.6L439.766 530.204C425.368 544.968 415.124 561.699 409.05 580.391L410.952 581.009ZM441.194 531.604C455.666 516.91 471.819 507.174 489.655 502.358L489.134 500.427C470.917 505.346 454.461 515.283 439.769 530.2L441.194 531.604ZM489.665 502.355C497.376 500.189 507.455 499.569 519.946 500.544L520.102 498.55C507.489 497.566 497.149 498.176 489.124 500.43L489.665 502.355ZM519.946 500.544C532.436 501.519 543.482 503.573 553.093 506.696L553.711 504.794C543.92 501.613 532.714 499.535 520.102 498.55L519.946 500.544ZM553.093 506.696C568.085 511.567 580.449 518.189 590.214 526.542L591.514 525.022C581.51 516.465 568.9 509.729 553.711 504.794L553.093 506.696ZM590.226 526.552C600.056 534.688 606.523 543.942 609.691 554.31L611.603 553.725C608.303 542.924 601.581 533.354 591.502 525.012L590.226 526.552ZM609.684 554.288C610.984 558.915 611.109 562.563 610.214 565.317L612.116 565.935C613.183 562.652 612.962 558.562 611.61 553.747L609.684 554.288ZM610.214 565.317C609.194 568.456 606.854 571.017 603.032 572.964L603.94 574.746C608.116 572.619 610.895 569.693 612.116 565.935L610.214 565.317ZM603.032 572.964C599.171 574.932 595.947 575.359 593.27 574.49L592.652 576.392C596.011 577.483 599.804 576.854 603.94 574.746L603.032 572.964ZM593.27 574.49C592.077 574.102 590.714 573.438 589.175 572.475L588.114 574.171C589.744 575.191 591.258 575.939 592.652 576.392L593.27 574.49ZM589.175 572.475C587.639 571.514 586.649 570.64 586.107 569.87L584.472 571.021C585.234 572.105 586.48 573.149 588.114 574.171L589.175 572.475Z" fill="white" mask="url(#path-4-outside-1_1_2)"/>
</g>
<defs>
<filter id="filter0_d_1_2" x="206.901" y="50.6905" width="651.843" height="987.56" filterUnits="userSpaceOnUse" color-interpolation-filters="sRGB">
<feFlood flood-opacity="0" result="BackgroundImageFix"/>
<feColorMatrix in="SourceAlpha" type="matrix" values="0 0 0 0 0 0 0 0 0 0 0 0 0 0 0 0 0 0 127 0" result="hardAlpha"/>
<feOffset dx="40" dy="36"/>
<feGaussianBlur stdDeviation="2"/>
<feComposite in2="hardAlpha" operator="out"/>
<feColorMatrix type="matrix" values="0 0 0 0 0 0 0 0 0 0 0 0 0 0 0 0 0 0 0.25 0"/>
<feBlend mode="normal" in2="BackgroundImageFix" result="effect1_dropShadow_1_2"/>
<feBlend mode="normal" in="SourceGraphic" in2="effect1_dropShadow_1_2" result="shape"/>
</filter>
<clipPath id="clip0_1_2">
<rect width="1080" height="1080" rx="235" fill="white"/>
</clipPath>
</defs>
</svg>
